<?xml version="1.0" encoding="UTF-8"?>
<svg id="Capa_1" xmlns="http://www.w3.org/2000/svg" version="1.1" viewBox="0 0 940.6 907.8">
  <!-- Generator: Adobe Illustrator 30.5.1, SVG Export Plug-In . SVG Version: 2.1.4 Build 3)  -->
  <defs>
    <style>
      .st0 {
        fill: #fff;
      }
    </style>
  </defs>
  <path class="st0" d="M441.5,907.3c-24.2-1.5-46.5-3.6-69.6-8.7h-6.9c-24.3-6.2-47.6-12.6-71.1-21.8-59-22.8-112.5-56-158.5-99.5-33-31.2-61.7-66.2-83.6-106.1C14.1,601.9-2.8,524.1.4,445.2c1.4-35.3,6-68.9,15.2-103.1,14.2-53,37.6-103,69.8-147.5,40.5-56,92.5-102.5,152.9-136.2,39.9-22.3,82.6-37.3,126.8-47.8l6.2-1C409.6,1.2,448-1,487.3.4c141.7,5.1,280.2,76.9,364,191.4,40.7,55.6,68,119.5,81.2,187.2,24.1,123.6-5,255.6-84.9,353.6-52.8,64.8-114.7,108-191.9,139.3-69.4,28.2-138.7,38.6-214.1,35.3h0ZM831.4,743.3c27.8-31.5,50.8-66.2,67.5-104.7,44.7-103,47.8-216.8,11-322.5-8.2-23.5-17.2-45.3-29-67-10.2-18.8-20.5-36.4-33.3-53.6-24-32.2-50.7-60.5-82.2-85.5-20.7-16.5-41.7-31-65-43.7-33.3-18.2-67.5-32.3-103.9-43-17.7-5.2-34.3-8.6-52.7-11.4-84.7-13.2-165.4-5.3-245.9,25-37.8,14.2-72.3,33.2-105,57C81.1,175.2,12.2,300.7,6,439.3c-2.4,53.1,3.4,105,19.4,155.5,13.8,43.5,33.8,83.9,61.4,120.5,53.9,71.4,128.1,125.7,212,156.8,20.5,7.6,39.8,15.3,61.3,18.6l58.3,8.8c69,6,135.5.7,201.5-20.7,82.6-26.8,154-70,211.6-135.4h0Z"/>
  <path class="st0" d="M635.8,862.6c-92.9,34.5-198.3,38.3-293.8,12.7-74.8-20.1-140.7-57.2-196.7-109.8l-11.1-11.2c-23.6-23.8-44.5-49.3-61.3-78.5-7.8-13.5-14.9-26.1-21-40.4-21.3-50.4-33.5-98-35.1-153.2-2.1-71.2,10.3-145.9,41.1-209.8l9.1-18.9c22.9-47.6,68.1-100.2,109.1-134.8,25.3-21.3,52.2-38.6,81.1-54.2,42.6-20,85.3-35.7,132-43,48.3-7.5,96.1-7.3,145.1-2.1,57.3,7.9,111.7,27.2,162.1,55.1,18.1,10,34.8,19.8,50.5,33l37.2,31.1,20.7,21,28.3,33c11.9,15.9,22.3,31.7,32.2,48.8l20.3,39.9c21.1,51.2,30.4,87.7,37.5,142.9,4.9,38.2,1.6,75.4-4.6,113.6-17.5,107-78.5,200.8-166.5,263.8-20.9,15.5-42.6,27.9-65.8,39.6l-50.4,21.4h0ZM435.2,41.8c5.5,1.5,9.5-.3,13-3.9l12.6-13.1-8.8.3s-16.9,16.7-16.9,16.7ZM461,39.5l16.5-14.8c-3-.3-9.5-.5-11.6,1.5l-14.8,14.1c3.6.8,8.2.7,9.8-.8h0ZM432.7,39.2l12.4-13.8c-5.6-.5-10.8,1.4-14.2,5.5l-11.1,13.1c5.9.5,9.7-1.2,13-4.8h0ZM478.5,39.1l17.2-13.8c-11.9-2.9-18.8,4.8-28.7,14.6,2.6.6,9.2,1.1,11.5-.8h0ZM494.7,40.3l19.1-13.8-11.7-.8-19.1,15.3c3,.9,9,1.3,11.7-.7h0ZM413.8,43.6l15.5-17.1-9.5,1.2-15,18.1c3.2.3,7.4-.4,9-2.2ZM399,45l13.3-14.1,2.9-3.2-11.4,2.3-13.7,16.5c2,.4,7.4.1,9-1.6h0ZM510.4,42.3l20.5-14-9.5-.6c-7.7,3.5-14.2,8.5-21.4,14.3,2.2,1,8.1,1.9,10.4.4ZM529.3,42.1l16.7-11.5c-2.4-1-8.5-2.4-10.5-.9l-18.3,13.6c4.8,2.1,8.5,1.3,12.1-1.2h0ZM384.1,48.1l13.4-17c-4.1-.8-8.4.7-10.9,4l-11.5,15.5c3.3-.3,7.2-1.2,9-2.5h0ZM369.3,50.5l14.1-17.7c-7,.6-11.4,3.1-14.6,7.9l-9.2,13.4c4.2.3,7.8-1.1,9.7-3.5ZM545.7,43.3l16-10.2c-5.6-2-11.5-.8-16.1,2.5l-13,9.2c4.6,2.5,9,1,13.1-1.6ZM561.4,46.3l15.6-9.2c-4-2.8-9.1-2.9-13-.4l-15.6,10.1c4.9,3.7,8.8,2,13-.4ZM353.9,55.6l13.4-20-10.7,3-13.6,21.3,10.9-4.4ZM572.6,51.5l20.8-10.2c-5-3.1-10.7-2.8-15.6-.2l-15.5,8.4c3,1.6,8.1,2.9,10.3,1.9h0ZM340.4,56.8l10.4-16.3c-5.7,0-10.8,3.3-13.9,8.7l-7.8,13.2c4.7,1,8.8-1.5,11.4-5.6h0ZM591.4,53.9l16.1-8.3c-2-1-7.2-2.8-9.4-1.7l-20.1,9.9c3.7,1.5,9.3,2.2,13.3,0h0ZM320.9,65.5l13.7-20.1c-3.6.6-8.8,1.8-10.6,3.5l-11.2,19.3c2.1,0,7-1,8.1-2.7h0ZM307.3,70.4l13.2-22.1c-12.6,2.2-14.5,12.1-20.4,24.7,2.2.2,6.3-1,7.2-2.5h0ZM601.3,59.9l22.2-9.6c-5.8-3.4-11.7-2.6-16.8.1l-14.2,7.5c1.5.8,6.9,2.8,8.8,1.9ZM709.2,787.3l37.8-26.7c36.3-29.5,66.9-64,91.4-104,37.3-60.8,55.6-141.5,52.1-212.8-1.9-39.9-9.8-79-23.1-116.5-18.2-51.3-38.5-86.8-72.5-128.8-30.7-37.9-75.4-72.7-118.3-95.8-15.5-8.3-30.2-15.9-46.6-21.7l-30.8-10.9c-64-22.7-155.1-24.2-221.7-9.5-22.8,5-43.8,10.6-65.6,19.2-43.9,17.2-83.9,41.5-119.7,72.2-15.9,13.6-29.5,27.9-43.2,43.6-29.8,34-51.9,72.4-68.3,114.5-44.2,113.2-37.7,245.5,27.1,349.4,34.3,55,70.9,91.1,124.9,126.3,25.7,16.8,52.9,29.5,81.1,41.5l53.8,17c74.9,18.1,153,16.4,227-5.7,40.6-12.1,79.1-27.8,114.8-51.2h0ZM616.2,65.7l23.8-8.7c-3.9-4.1-10.6-4.8-16.1-2.2l-16.8,7.8,9.2,3.2h0ZM284.6,79.7c6.4-.3,9.3-4.1,11.5-8.8l7.7-16.4c-2.6.7-8,2.4-9.1,4.7l-10.1,20.5h0ZM632.3,71l22.6-7.8c-5-3.6-10.5-4-16.2-1.7l-15.4,6.3c2.6,1.9,7,3.9,9,3.2h0ZM278.5,83.3l9.9-22.3-8.1,3.6-9.6,22.1c2.5-.3,6.9-1.5,7.8-3.4h0ZM256.7,93.9c5.5-1.2,8-4.3,9.8-8.4l8.3-18.6-9.6,4.7-8.6,22.3h0ZM647.2,77.2l22.5-7.1c-4.5-3.3-10.3-4.5-15.7-2.5l-16.6,6.2c2.4,1.6,7.3,4.1,9.8,3.3h0ZM253.2,92.5l7.1-18.9-8.2,4.3c-3.5,7.5-6,14.4-8.2,23.1,4.8-1.5,7.8-4.4,9.3-8.5h0ZM668.4,82.5l16.5-5.5c-4.1-3-9.7-4.1-14.8-2.6l-19.1,5.8c5.2,4.5,10.8,4.4,17.4,2.2ZM232.1,109.5c5.9-2.5,7.4-6.6,8.8-11.6l5-17.2-8.4,5.7c-3.1,7.8-4.7,14.9-5.4,23.1h0ZM676.3,91l21.2-5.7c-3.8-3.4-9.2-5.5-14.1-3.6l-16.3,6.3c2.3,1.5,6.9,3.6,9.3,3ZM694.2,98.6l17.1-5.8c-2.1-2.5-6.5-5-9.3-4.1l-21,6.5c3.6,4.4,8.6,5,13.2,3.4h0ZM226.2,112.8l6-23c-2.6.8-7.4,3.1-8,5.4l-6,23.3c2.8-1,7.4-3.7,8-5.7h0ZM702.1,107.5l22.5-5.8c-4.1-4.1-9.8-6.2-15.2-4.1l-14.7,5.7,7.4,4.2h0ZM205.4,128.5c5.9-2.6,8.5-7.7,9.6-13.7l3-15.9c-3.2,1.7-7.8,4.9-8.4,7.9l-4.3,21.7h0ZM714.9,115.9l22.3-5.7c-1.9-2.2-6.4-5.7-8.7-5.1l-22.4,5.9,8.8,4.9h0ZM193.8,137.8c2.4-1.2,6.8-4.3,7.2-6.8l4.6-23.8-7.7,5.8-4.2,24.9h0ZM732.4,123.5l18.5-3.5-8.4-6.4-22.8,5.8c3.8,3.9,8.2,4.9,12.7,4h0ZM181.8,147.2c6-2,7.5-5.6,8.3-11l3-19.7c-5.5,2.8-8.6,7.9-9.2,13.4l-2.1,17.3h0ZM739.5,134l24.8-3.5c-3.6-4-8-6.5-12.4-5.6l-20.3,3.7c1.9,1.9,5.8,5.7,7.9,5.4h0ZM170.9,158.3c7.1-2.4,6.2-8,7-13.5l2.6-18.7-7.9,6.7-1.7,25.5h0ZM752.9,143.7l23.1-2.9-7.1-6.1-24,3c1.2,2.2,5.3,6.3,8,5.9h0ZM166.5,161.3l1.4-23.2c-9.5,5.1-7.9,16.8-6.6,29.9,1.9-1.4,5.1-4.6,5.2-6.7ZM788.4,153.3l-6.9-6.6-24.5,1.2c2.2,4.2,6.5,6.4,10.8,6.2l20.6-.8h0ZM156.8,170.9l-.3-21.5c-9.6,5.7-6.9,16.1-5.3,28.9,2.6-.9,5.6-4.6,5.6-7.4ZM799.1,164.5l-5.6-5.5c-8.4-1.7-16.8-1.9-26-.1,1.3,1.6,5.2,6,7.6,5.9l24-.3h0ZM141.9,190.8c3.1-3.1,5.6-7.2,5.3-10.2l-2-20.9-5.2,6.7,1.8,24.4h0ZM808.8,177.4c-1.1-3.9-5.3-8.2-10.1-8.1l-19.5.3c4.9,5.7,10.8,6.9,17.7,7.2l12,.6h0ZM132.9,200.8c3.4-5.1,4.6-7.6,4.4-10.9l-1-20.9-6.5,8.1c.3,8.8,1.1,16.3,3,23.8h0ZM821.4,188.7c-2-2.8-5.8-6.8-8.6-7l-23.9-1.1,6.4,7.3,26.1.7h0ZM124.4,212c3.8-3.7,4.6-7.9,3.8-12l-3.1-17.4c-3.3,3.5-5.1,7.4-4.3,11.3l3.6,18.1h0ZM830.9,202.4c-2.1-5.2-6.4-8.5-11.7-8.7l-18.2-.7c1.6,3.9,5,7.5,8.9,7.8l21,1.6ZM117.2,224c4.5-6.4,2.6-11.8,1.9-17.6l-2.1-12.5c-7.9,6.9-5.1,18.9.2,30.1ZM107.6,236.9c3.5-2.7,5.1-7.8,4-12.5l-4.2-18.3c-2,1.7-4.8,6.5-4.1,9.8l4.3,21.1ZM841,216c-2-4.1-6.2-8.5-10.7-8.9l-19.6-1.5c1.6,3.3,4.8,7.6,7.9,8l22.3,2.4h0ZM100.6,247.1c4.8-3.9,4.1-7.1,3.2-10.5l-4.8-20.3-4.4,7.8c1.3,8.6,3.1,15.5,5.9,23.1h0ZM848.6,230.2c-.3-5-4.6-8.9-10-9.6l-18.1-2.3c1.2,2.9,4.1,7.4,6.6,7.9l21.5,4ZM94.2,261.8l3.6-8.6-7.4-23.5c-3.5,4.7-4.4,10.2-2.4,15.6l6.2,16.5h0ZM858.6,245.8c-1.2-3.4-3.5-8.5-5.8-9l-22.3-5.3,5.9,7.6,22.2,6.7h0ZM87,273.7c4.6-5.8,2.9-10.6.8-15.4l-4.7-15.6c-3.8,4.4-3.9,10.5-1.7,16.2l5.6,14.8h0ZM865.5,260.3c-1.3-6.6-5.2-7.6-9.1-10.2l-16.9-5.9c1.7,10.7,13.7,12.9,26,16.1h0ZM80.6,287.2c1.6-1.3,4.1-5.4,3.4-7.4l-7.8-23.4c-3.2,3.4-4.2,8.6-2.3,13.4,0,0,6.8,17.4,6.7,17.4ZM873.4,277.9c-.3-7-4.1-8.5-7.7-11.6l-18.5-7c1.2,3.7,3.2,7.5,5,8.7l21.1,10h0ZM74.4,303l3.6-10.2-9-22.6c-3.2,4.8-2.9,10.1-1.2,14.9,0,0,6.6,18,6.6,18ZM880,294.3c.4-7.2-2.5-9.5-6.3-11.6l-19.3-8.6,5.3,9.8,20.3,10.4ZM69.2,314.5l2.7-7.2-9.6-23.1c-4.3,8.9,1.5,20.5,6.9,30.2h0ZM886.6,309.3l-1.7-7.7-21.8-11,2.9,8.8,20.5,9.9h0ZM64.6,329.8c4.4-5.2,2.3-8.8.5-12.8l-8.2-18c-2.8,5-2.9,10.8-.2,15.9l7.9,15h0ZM891.6,325.4c.5-4.1-.8-8.8-3.8-10.3l-19.4-9.5,3.1,8.1,20.1,11.7ZM59.4,344.1c2.6-3.5,3-5.5,3.1-8.1l-10.4-21.8c-5.3,8.8,1.6,18.7,7.4,29.9ZM897.4,341.2c.4-3.3-.9-8.5-3.7-10.1l-20-11.2c1,5.9,4.6,9.4,9.3,12.4l14.3,8.9h0ZM55.4,361.9c1.5-3.7,2.9-9.6,1.2-13.2l-9.6-19.4c-1.2,2.4-3.1,7.6-2.1,9.8l10.5,22.8ZM901.8,357.3c.3-6.9-3.4-9.9-7.6-12.9l-16-10.1c.6,3.9,2.2,9.8,5.7,12l17.9,11.1h0ZM51.7,375c1.5-2.9,2.4-7.3,1.1-9.7l-10.4-19.6c-2.8,3.8-3.5,9.6-.6,14l9.9,15.3ZM905.7,372.6l-1.9-8.7-19.5-13.1c-1.3,6.6,2.5,10.6,7.3,13.5l14.1,8.3h0ZM48.4,390.8c1.2-2.3,2.9-7.6,1.4-9.8l-12.2-18.1c-6.1,8.6,3.1,18.4,10.7,27.9ZM908.4,389.5c.2-3.1-.1-8.5-2.1-9.8l-18.1-12.4c-.6,5.3,1.6,9.5,5.5,12.1l14.7,10h0ZM45.7,406.8l1.9-8.4-13.5-19.5-2.2,8.3c4,7.3,7.7,12.9,13.8,19.6h0ZM911.9,405.1c.9-8.1-3.4-12.1-9.7-15.6l-10-5.6c-.2,4.8,2.1,9,6.2,11.8l13.6,9.4h0ZM44,423.3c4.5-6.4.6-10.1-2.8-14.3l-9.9-12.6c-2.3,6.6-1.1,11.5,3,16l9.7,10.9h0ZM913.8,422.3c.2-4-.4-9.3-1.8-12l-17.5-11.9c-.7,6.3,2.1,10.2,6.2,13.5l13.1,10.4h0ZM43.6,440.2c3.2-8.8-.4-10.7-4-14.6l-10.9-11.9c-2.6,5.6-.9,10.3,2.8,14.1l12.1,12.3h0ZM915.4,440.6c.5-2.7.9-10.4-1.8-12.5l-15.8-12.2c-.5,2.7-.6,7.6,1.1,9.2l16.4,15.4h0ZM43.8,456.3l.6-8.5-17.3-17.2c-1.4,3.7-1.4,8,.6,10,0,0,16.1,15.7,16.1,15.7ZM916.5,458c1.9-7.4-1.4-11.4-5.3-14.9l-12.2-11c-2.1,7.1,1.6,11,5.9,15l11.6,10.9ZM44,472l.4-9.1-18.1-17.3c-2.1,3.4-1.8,9.5,2.2,12.9l15.5,13.4h0ZM916.2,475.7c4.1-10.5-6.5-17.1-15.8-26.1-.7,1.2-1.2,6.1.1,7.6l15.7,18.4h0ZM43.2,477.3l-14.9-13.3-2.1-2.7c-.9-1.2-4.3,6.7,3,12.8l15.2,12.6c.7-2.5.7-7.8-1.1-9.4h0ZM915.2,491.6c2.2-4.7.9-9.5-2.3-13.2l-12.9-15c-.5,2.3-1.3,7.7,0,9.3l15.2,18.9h0ZM45.3,501.7l-.5-9.1-19-15.7c-1.6,3.5.2,9.6,4.2,12.7l15.3,12.1h0ZM913.6,509.9c1-3.6,1.9-8.9.5-10.8l-13.6-18.5c-1.5,2-2.6,7.9-1.3,10.1l14.5,19.1h0ZM45.9,514.7c2.5-6-.1-9-3.7-10.6l-16-12.3.8,8.7c6,5.5,12.4,10.2,18.8,14.2ZM910.8,528.4c3.3-6.5,1.3-12.6-3.2-18.2l-9.1-11.2c-2.7,6,.7,9.8,3.5,14.5l8.8,15h0ZM48.7,529c.2-5,0-6.2-.7-8.6l-19.7-12.7c-.2,3.9,1.2,7.2,3.4,8.8l17,12.4h0ZM907.1,546.2c2.8-4.7,2.7-9.9,0-14.5l-10.3-17.3c-.7,2.2-2.6,8.7-1.2,11.2l11.6,20.6h0ZM52,543.5c1.2-7.6-3.5-9.6-7.8-12.5l-14.8-10.1c-.4,1.4,0,8.2,2.2,9.6l20.3,13.1ZM903.1,560.7c1.3-1.7,3.2-6.9,2.1-8.9l-11.2-20.6c-1.3,3-3,9.9-1.4,12.5l10.6,17h0ZM54.4,557.5l-.8-8.9-20.9-12.4c-1.2,5.4,2,9.2,6.1,11.7l15.7,9.6ZM899.2,579.5c1.1-2.7,3-8.7,1.6-11.2l-10.3-19.2c-4.2,6.7-1.4,11,1.3,16.2l7.4,14.2h0ZM59,574.3c1.2-8.6-4.2-10.8-8.7-13.7l-15.3-9.6c-.8,4.2,1.1,9,4.5,11.1l19.4,12.2h0ZM893.3,598l3.6-10.4-10-23.8c-2.8,4.7-2.7,9.6-1,14.2l7.4,19.9ZM63.3,588.8c1.9-5.9-1.4-8.2-5.9-10.9l-18.9-11.4c-.8,11.7,12.8,17.5,24.8,22.3ZM886.3,616.1l3.9-10.3-7.8-24.4c-1.9,4.1-4.1,9.7-2.9,13.3l6.9,21.4ZM69.1,604.5c.9-5.2-1.8-8.4-5.9-10.5l-19.9-10.1c.6,2.6,1.9,8.3,4.2,9.4,0,0,21.6,11.1,21.6,11.1ZM879.6,630.2c2-3.8,3.7-8,3-10.1l-6.1-20.9c-2.7,3-4.2,7.8-3.2,10.8l6.3,20.2h0ZM76.6,620.3c0-6.7-3.3-7.6-6.4-10.4l-20.4-9.3c-.5,3,.6,7.4,2.8,8.4,0,0,24,11.3,24,11.3ZM82.7,633.3c-1.2-7.5-5.5-9.2-10.2-10.3l-17.9-7.5c.6,4.8,3.7,10.1,8.9,11.8l19.2,6h0ZM872.6,646.7c2.3-4.2,4.5-10.1,2.8-15.1l-5.8-16.9c-1.5,2.5-3.5,7.1-2.9,9.4l5.9,22.6h0ZM89.9,647.1c-.8-7.1-4.9-8.5-9.1-9.3l-20.3-7.8,4.7,8.1c7.7,4.7,16.2,8,24.6,8.9h0ZM864.3,661.7l4.6-7.5-5.1-24.2c-3.1,2.8-4.9,7-4,10.9l4.5,20.8h0ZM98.9,661.9c-1.9-7.7-7.7-8.9-13.1-10.7l-18.3-6.2c4.2,11.8,18.4,14,31.4,17h0ZM855.1,677.7c5.1-4.6,5.8-10.3,4.5-16.4l-3.4-15.7c-5.2,3.9-4.1,8.8-3.5,13.8l2.4,18.2ZM846.5,691.8l3.8-6.3c0-9.4-.7-18.3-2.8-27.8-1,2.3-3.7,6.8-3.4,9.2l2.4,24.9h0ZM107,675.4l-6-7.8-24.9-6.8c1.6,5.7,5.5,9.4,10.5,10.4l20.3,4.2h0ZM835.9,704.8l5.6-9.9c0-8.2-.5-15.2-2.3-23.1-3.8,4.6-4.9,9.1-4.6,13.7l1.4,19.3ZM116.7,687.7l-6.7-7.3-25.9-4.7c1.4,2.8,3.7,6.4,5.3,7.7,8.7,3.2,17.2,4.9,27.3,4.3ZM118.8,693.2l-19.2-2.8-8.1-1.8,6.1,7.4c9.3,4.2,18.8,5.3,28.8,4.3-1.2-2.2-4.7-6.8-7.6-7.2h0ZM824.8,720.6l5.9-9.7-.8-23.9c-3.2,2.8-4.4,4.9-5.4,7.6l.3,25.9h0ZM813.3,733.4c3.5-2.5,6.2-6.8,6.3-11.3l.5-22.5c-5.9,4.2-6.5,8.7-6.5,14.4l-.2,19.4h0ZM137,713.4c-2.2-2.7-6.3-7.1-9.3-7.5l-25.7-2.9c6.8,10.3,22.1,11.1,35,10.4h0ZM801.3,745.7c9.8-4.6,7.8-20.7,8.2-33.6l-5.5,7.1-2.6,26.5h0ZM145.8,724.1c-1.1-2.9-3.9-5.6-6.3-5.9l-27.4-3c6.5,11.4,19.7,10.6,33.7,8.9h0ZM789.6,757.9c5.5-2.9,7.7-7.8,8-13.5l1.2-20.8c-4.5,3.2-6.7,8-7.2,13.5l-2,20.8ZM157.7,736.3c-1.9-2.8-5.9-7.3-9-7.4l-26.3-.8c8.6,11.4,21.5,8.9,35.3,8.2h0ZM777,769.5c7.4-3.8,7.7-10.2,8.9-16.2l1.6-17.4-5.9,6.3-4.6,27.3ZM168.7,747.9c-2.6-4.2-7.1-7.1-11.9-7l-21.2.6c8.5,10,18.9,7.2,33.1,6.4ZM764.3,779.3c5.1-3.5,7.6-8.2,8.7-13.3l4.2-20.5c-5.3,2.4-7.8,6.9-8.8,12.3l-4,21.5h0ZM182,759.3l-7.9-6.5-28.6-.4c4.6,5.8,11.3,7.9,18,7.6l18.4-.7h0ZM752,788.9c5-2.1,7.8-6.7,8.8-12.1l3.5-19.3c-6.6,2.3-7.9,7.3-8.9,12.9l-3.4,18.5ZM175.8,771.4l18.8-1.9c-3.2-2.7-6.6-5-9.1-5.8l-27.7.9c4.7,5,10.4,7.7,18,6.9h0ZM737.6,799.9c4.3-2.5,8.7-6.4,9.7-10.9l4.7-21.4c-5.4,2.3-7.7,6-9.4,10.9l-5,21.4ZM178.3,781.8c10.5.3,19.4-1.1,29.3-2.8-3.6-5.5-9-5.2-15.2-4.7l-20.9,1.7,6.8,5.8h0ZM731.5,803l6.8-24.4c-3.6,1.9-5.8,3.9-7.4,6.5l-7.7,24.7c2-.8,7.6-4.2,8.3-6.7h0ZM202.5,792.5l17.1-3.2c-3-5.7-7.9-5.5-13.1-5l-22.5,2.4c4.2,5.4,11.2,7.2,18.4,5.9h0ZM709,817.6c8-.7,7.5-5.7,10.5-9.4l6.3-21c-2.5,1.2-6.4,3.6-8.2,5.4l-8.7,25h0ZM211.2,803.5l23.7-5.3c-4.6-5.5-9.9-5.2-15.9-4.1l-20,3.6c2.7,1.8,9.1,6.5,12.2,5.8h0ZM702.6,820.4l9.5-23.6c-5.7,1-8.4,5.7-10.5,11l-6.9,17.3c2.8,0,6.8-1.9,8-4.8h0ZM251.1,807.4c-12.7-11.1-21-.8-37.1.3,10.4,11.3,21,.6,37.1-.3ZM679.2,833.2c3.8-.5,8.3-3,9.8-6.5l9.8-22-8.5,3.7-11.2,24.9h0ZM243.1,821.5l21.6-6.4c-5.6-5.3-11.5-3.3-17.6-2l-18.8,4c3.5,2.1,9.7,5.9,14.8,4.4h0ZM663.4,841.9c3.5-1.2,8.8-3.7,10.3-6.1l9.7-23-8.3,4.1-11.8,24.9h0ZM258.3,828.9l21.1-6.4c-3.8-3.7-8.1-4.8-12.2-3.5l-21.8,6.9c3.2,2.8,8.7,4.3,12.9,3h0ZM648.3,846.6c8.1-.5,10.4-6.5,13.4-11.4l7.2-15.2-8.1,3.9-12.5,22.7h0ZM273.3,836.5l20.2-6.8c-4-4.2-9.4-4.6-15-2.7l-19.4,6.7c4.1,2.7,9.6,4.4,14.2,2.8h0ZM632.1,853.1c7.4.3,10-4.1,12.7-8.3l9.8-17.9c-4.4,1.4-9.1,3.6-11.2,7.1l-11.4,19.1ZM292.2,842.5l17.3-7c-2.3-1.2-7.3-3.7-9.4-3.1l-25,7.7c5,5,11.1,4.8,17.1,2.4h0ZM613,860.1c7.1-.4,11.9-4.6,15.2-9.8l10.9-17.4-9.1,2.8-17,24.4h0ZM302.8,849.8l19.8-9c-4.2-3.8-8.1-2.5-12.5-.9l-20,7.3c2.6,2.5,8.2,4.7,12.7,2.6h0ZM622.3,839.5c-5,1.5-11.2,3.5-14.6,6.2l-16.2,21.5c14-2.5,22.4-16.1,30.8-27.7h0ZM322.7,852.1l13.8-6.8c-2.4-1.4-7.2-3.3-9.4-2.4l-22.7,9.6c5.5,3.3,12.1,2.7,18.4-.4ZM588.1,865.2l14-18.6c-5.3-.5-10.5,2.5-14.2,7.3l-12.4,16.4c4.2,1.2,9.5-.9,12.7-5.1h0ZM332.9,858.9l18.2-9.2-9-2.4-22.7,10.8c3.9,3.2,9,3.1,13.5.8h0ZM572,867.6l13-16.5c-6.3-.8-10.4,2.3-14.1,6.7l-13.7,16.2c4.9.5,11-1.6,14.8-6.4h0ZM348,863l17.5-9.2c-2.2-1.2-7.9-2.5-10.2-1.4l-21.9,10.4c4.9,2.7,10,2.7,14.6.3h0ZM363.1,867.6l19-9.6c-3.3-1.5-9.1-3.3-11.6-2l-22,11.6c5.2,1.8,10.4,2.1,14.6,0h0ZM554.7,870l12.8-14.2-15.4,2.7-16.4,19.2c7.6.1,13.7-2.8,19-7.7h0ZM382.3,870.1l16.3-9.7c-3.9-1.5-9-2.1-11.7-.6l-19,11.1c4.8,2.5,9.7,2,14.4-.8h0ZM545.7,860.3c-5.1-.7-9.8.9-13.1,4.2l-15,15c10.9,1.8,19.1-9.8,28.1-19.1h0ZM394.5,875l18.4-12.3c-2.7-.8-7.6-2-9.3-.9l-19.6,12.4c2.7,1.2,8.5,2.2,10.5.8h0ZM514.6,876.1l14.3-13.7-11.6,1.7-18,16.5c5.7,1.6,11.1-.5,15.3-4.6h0ZM410.2,876.8l17.9-12.3c-7.1-2.3-11.6.7-16.5,4.1l-12.2,8.5c2.5.7,8.7,1.3,10.8-.2h0ZM482.2,881.7l10.1-.3,17.4-16.8c-6.3-.9-10.9,1.3-14.9,5.1l-12.7,12h0ZM429.2,876.4l14.9-10.8c-6.1-2-10.6.3-15.5,3.7l-14.3,9.8c5.1,2,10.4.6,15-2.7h0ZM459.8,881.1l17.7-15.4c-3.5-.4-9-.5-10.9,1.1l-18,14.4c3.3,1.5,8.9,1.9,11.2,0h0ZM475,881.6l17.9-15.8c-2.5-.9-8.2-.8-10.1,1l-16.4,15.2c2.2.5,7.2.9,8.6-.3h0ZM440.3,881.2l19.8-15h-10.1c0,0-20,14.8-20,14.8,1.4.3,8.2,1.8,10.3.2h0Z"/>
  <path class="st0" d="M252.3,788.5c-74.9-43.9-136.3-114.2-166.9-194.5-27-70.8-29.9-149-14.2-222.8,16.7-78.1,59.6-153.7,119-207,33.8-30.2,74.2-56.2,115.9-73.8,37.3-15.8,75.5-24.3,115.3-30.1,35.9-1.6,70.6-3.6,106.5,1.4,64.7,9,126.7,33.3,180.3,70.3,69.7,48.1,122.2,116.5,149.7,196.3,10.6,30.8,18.1,61.1,21,93.7,5.2,58.5-.9,116.1-20.7,171.5-17.6,49.1-46.6,92.5-82.9,129.8-28.7,29.5-61.3,53.1-97.2,72.9l-41.9,19.7c-47.8,19.4-97.5,30.2-149.2,32.4-82.5,3.5-163.2-17.6-235-59.7h0ZM774.8,713.4c33.1-34.8,59.4-75.6,76-120.7,44.1-119.9,23.7-255.3-49.4-359-10.7-15.2-21.4-29.1-34.5-41.9l-13-12.7c-31.6-30.7-67.2-55.6-107.4-74.2-46.3-21.4-94.8-35.2-145.9-38-61.4-3.4-113.5,2.8-171.5,23.2-67.2,23.6-131.1,68-175.6,123.9-51.2,64.5-79.4,142.6-84.1,224.8-6.5,113.7,36.6,215.9,119.5,293.3,56,52.2,135.2,90,210.8,102.9,134.7,22.9,280.7-22.3,375.2-121.7h0Z"/>
  <path class="st0" d="M466.9,543.9l93.7-.3c13.5,0,26.3-3.8,37.8-9.8,23.2-12.3,37-35,37.8-60.9.7-23.5-7.9-44.9-26.8-59.3l-18.8-12.9c26.8-12.7,37.9-37.3,34-66.6-4.9-37.1-34.5-64.2-72.3-64.4l-85.5-.5v57.6s-13.8,11.9-13.8,11.9v-83.4c0,0,112,.8,112,.8,22.8.2,44,13.4,57.6,30.9,25.5,32.7,28.5,88.9-6.9,114.1,43.9,26.3,49.8,89.9,16.9,126.4-18.2,20.2-43.6,31.7-70.9,31.7h-111.5c0,0,0-74.6,0-74.6h16.6v59.4h0Z"/>
  <path class="st0" d="M597.3,458.6l-82.1-74.3-36.7-34.2-85.4,79.1-42,38.1-23.6-.2,39.8-37,47-43.2,63-58.7,46.5,42.5.4-23.8h18.9l.2,41.2,43.9,39.7,43.8,40.6c-3.8,1.7-7.6.5-11.5.2-8.9-.8-15.3-3.6-22.3-10h0Z"/>
  <polygon class="st0" points="389.4 291.5 389.3 401.3 373.2 414.6 373.1 305.3 302.8 305.3 302.8 255.4 438.6 255.5 438.7 269.3 318.8 269.4 318.7 291.6 389.4 291.5"/>
  <path class="st0" d="M499.5,802.5h-60.1c-.4-1.6.7-4,2-4.5l16.9-5.5c3-1,6.3-5,6.3-8.7v-72.6c0-1.6-1.1-4.6-2.1-5.5-4.8-4.5-27.2,1.3-39.2,6.3l18,43.3,5.1,13.8c-13.2,15-37.4,13.5-53.1-.2l24.2-57.2c-1.2-2.2-1.8-6-.5-7.1,1.4-1.2,4.3-1.2,6.8-1.1,11.6.6,25.1-9.6,44.5-6.2-2.5-2.9-4.8-6.1-5.1-8.7-.5-4.1,1.8-8.5,6.2-9s7.5,4,7.9,8c.3,3.3-2.9,6.3-6.4,10.3,11.2-2.2,21.2-.3,31.7,3.2,12.8,4.2,20.2-1.3,22.8,4.4.6,1.3-.5,3.8-2,6l20.6,49.8c1,2.5,1.5,5.8,1.6,8.6-15.3,13.7-37.4,12.4-51.5-1.5l23.2-56.8-18.8-5.8c-10.4-3.2-23.4-3.3-23.3,4.2l.3,72.9c0,4.5,3.2,8.3,6.9,9.5l15.1,5.1c1,.3,1.9,1.9,1.9,4.8h0ZM418.4,766v-41c0,0,.6-8.3.6-8.3l-21,49.4h20.3s0,0,0,0ZM442.1,765.9l-19.9-47.3-.5,47.5,20.5-.2ZM518.4,765.9v-47.3c0,0-19.9,47.7-19.9,47.7l19.9-.4h0ZM542.3,766.3l-20.3-47.8-.2,47.6,20.5.2h0Z"/>
  <polygon class="st0" points="389.3 447.5 389.4 543.9 411 544.2 411 425.9 427 411.5 426.9 559.2 373.2 559.3 373.1 461.8 389.3 447.5"/>
  <path class="st0" d="M552.8,380.8c24.2-3.9,37.7-21.4,33.4-45.5-2.7-15.3-14.4-27.1-30.6-28.5-17.8-1.6-35.8-.9-53.6-.7l-.3,32.1-16.6-14.9v-32.1c0,0,69.7.6,69.7.6,17.7.1,34.3,11.2,42,26.9,6.8,13.9,7.4,30.7,1.5,44.8-7.6,18.1-25.2,28.3-45,29.8l-.4-12.5h0Z"/>
  <path class="st0" d="M519.3,649.8c-3.9,4.9-11.4,7.9-17.7,7.9l-42.8.2,5-9.1v-48.9l-5-8.2,42.9.3c5.7,0,12.3,3.2,15.6,7.3,3.5,4.4,3.8,9.7,1.5,14.7-1.9,3.9-6.8,7-11.5,8.8,5.8,2.1,11.7,5,13.8,8.8,3.2,5.9,2.8,12.8-1.6,18.4h0ZM494.7,618.8c5.5-.3,8.9-4.1,9.2-9.1.3-3.5-2.2-9.3-7-9.4l-16.8-.4.2,19.6,14.4-.8h0ZM498.4,648.6c5.8-1.6,8.7-7.4,8-11.9s-5.2-8.5-10.6-8.6l-15.7-.3.2,21.9c6.2,0,12.6.4,18.2-1.1Z"/>
  <path class="st0" d="M489,526.1v-41.5c0,0,17.3,0,17.3,0v26.4s49.3-.2,49.3-.2c22.2-2.9,38.8-19.3,38-42.9,4.7,4.9,8.7,7.6,15.5,9.1-.2,27.1-26,48.3-51,48.5l-69.2.5h0Z"/>
  <path class="st0" d="M295.7,650.3c-5.4,6-12.2,7.7-19.8,7.7l-37.6-.2c2.9-4.5,4.9-7.6,4.9-11.4v-43.8c0-4.2-2.6-7.4-5.9-10.8h38.7c4.9,0,10.6,1.6,14.5,4,5.7,3.6,7.6,9.6,6.1,16-1.2,5.2-6.1,8.5-13.2,10.5l7.7,3.2c4.3,1.8,8,6.5,8.8,10.2,1.3,5.6-.6,10.5-4.3,14.6h0ZM274.6,618.1c5.5-1.3,7.3-6.4,6.9-10.2-.6-4.4-4.1-7.6-9.1-7.7l-13.4-.2v19.5c5.2,0,10.6,0,15.7-1.3h0ZM277.7,647.8c5.5-2,6.1-6.8,5.5-11.3-.4-3.1-3-8-7.5-8.3l-16.8-.8.2,22c5.9.2,12.9.5,18.6-1.6h0Z"/>
  <path class="st0" d="M414.2,632.1l-7.8-.4v18.4c.1,2.1,2.3,5.4,4,7.7h-26.1c3.9-4.3,6.3-7.1,6.3-11.4v-45.4c0-3.2-2.4-6.3-4.9-9.3l44.2.3c6.6,0,13.2,5.4,15.6,9.7,3.7,6.6,3.2,15-1.5,20.5-3.5,4.1-9.2,6.1-13.9,7.3l9.6,14.1,12.1,14.1-20.4.2-17.1-25.8h0ZM426.8,620.4c6.3-4.4,5.6-17.5-1.9-19.5-5.8-1.6-12-.8-18.4-1v24.1c6.5.3,14,.8,20.3-3.7h0Z"/>
  <path class="st0" d="M608.8,635.5c-7,21.9-34,28.2-53.8,21.1-15.9-5.7-24.2-20.8-22-37.3,2-15.4,15.8-27.2,32.3-28.7,13.7-1.2,27.7,1.5,36.4,12.1,7.8,9.4,10.9,20.8,7,32.8h0ZM593.3,628.4c.3-10-1.2-19.6-8.8-25.5-5.9-4.7-13.9-5.4-21.5-2.6-12.4,4.5-15.7,22.4-11.8,35.7,3.4,11.5,13.7,17,25,15.1,9.9-1.7,16.7-11.1,17.1-22.7Z"/>
  <path class="st0" d="M353.3,639.5h-28.8s-4.3,10.6-4.3,10.6c-.7,1.7.9,4.9,2.4,7.8l-20.9-.2,10.3-19.3,17.2-40.6,1.9-6.3,18.9.3,22.1,52.1c2.1,5,4.5,8.3,8.5,13.8l-25.8.2c1.8-2.8,3-6.4,2.2-8.7l-3.6-9.8h0ZM349.4,631.1l-10.1-26.8-11.5,27h21.6q0-.1,0-.1Z"/>
  <path class="st0" d="M738.1,639.4h-29.5s-4.8,14.2-4.8,14.2l5.3,4-22.9.2,7.2-11.9,18.8-44.9,2.8-9.4h20.5l15.4,37.8,7.9,17.6c1.7,3.7,4,6.2,7.6,10.6h-26.2c1.3-2.5,2.7-6.5,1.8-8.6l-4-9.8h0ZM735.2,631.2l-11.4-28.5-12.2,28.5h23.6Z"/>
  <path class="st0" d="M677.1,657.9h-58.2c-.2-2.8.2-6.5,1.6-8.3l36.5-49.2h-27c-2.5,0-6.3,4.5-9.1,6.3l.3-14.9,55.3-.2c1.7,5.7-.4,9.5-3.3,13.5l-33.1,44.5,17.7-.5c8.7-.2,14.9-2.2,22-8.1l-2.8,17h0Z"/>
  <path class="st0" d="M212.7,657.8l-27.5.2c3.1-4,5.1-7.2,5.1-11.5v-45.8c-7.2-2.2-13.2-.3-19.3,7.6l-.3-16.5,59.9-.2v17.2c-3.6-3.6-6.6-8.2-10.1-8.3l-12.9-.3v47.5c0,3.1,2.5,6.3,5.1,10.2h0Z"/>
  <polygon class="st0" points="427 305.2 427 364.2 410.9 378.7 410.9 291.4 440.7 291.4 440.5 305.3 427 305.2"/>
  <path class="st0" d="M468.2,235.7l-5-21.5c-.3-1.1-3.1-2.7-4-2.2l-15.5,9.5,11.6-14.6c.4-.5,1.6-2.5,1-2.8s-2.3-1.2-2.9-1.2l-23.1-3.1c8.5-3.4,15.9-3,26-4.8l-10.8-14.8c3.7,1.1,5.3,2.6,8,4.3l9.3,5.7,5.7-25.6,4.2,25.7,16-10.7c-1.6,6.2-5.9,9.5-9.6,14.6l24.1,4.7c-3.3,3.4-13.5,1.8-23.3,6.4,4.6,6.7,9.5,9.1,13,16.7l-14.2-9.2c-.8-.5-3.4-1.7-3.9-1s-1.5,2.5-1.7,3.4l-4.7,20.7h0Z"/>
  <rect class="st0" x="203.1" y="703" width="193.8" height="4.9"/>
  <rect class="st0" x="552.2" y="703" width="187.3" height="4.9"/>
  <path class="st0" d="M328.7,127.6l10.6,23.6-5.8,2.7-15.8-34.1c1.3-.8,4-2.4,5.4-2.8s4.3,1.3,5.6,2.3l17.4,12.7,3-24.7,7.8-2.5,12.1,33.8c-1.3.9-3.5,2.1-4.5,2.5s-2.9-2.1-3.2-3.1l-7.4-21.6-3.5,25.9-21.7-14.6h0Z"/>
  <path class="st0" d="M440.8,125.2l-23.1,3.5-3.6-35.9,19.4-1.7c4.4-.4,8.6,2.6,9.8,5.9,1.6,4.3.2,8.4-4,10.9,3.4,1.8,6.2,4.3,6.9,7.4.7,3.4-1.4,9.3-5.2,9.9h0ZM435,105c1.3-.6,2.2-4.6,1.4-5.7-.7-.9-3.1-2.6-4.3-2.5l-9.9.9.8,9.8c4-.4,8.2-.9,12-2.6h0ZM424.4,122.6l11.5-2.1c1.4-.3,2.6-4.1,2.4-5.4s-2.4-3.9-4.1-3.8l-10.9.8,1.2,10.5h0Z"/>
  <path class="st0" d="M297,172.2l-18.3-31.4c.9-1.9,5.3-3.7,7-2.9l13,5.8,15.9,7.7-13.4-24.9,6.9-2.1,16.9,32.9c-3.2,3-6.7,1.8-10.2.4l-24.7-10.2,12.7,21.6-5.9,3.1h0Z"/>
  <path class="st0" d="M185.4,251.3l-8.2,9.9,13.4,7.8-4.6,6.4-32.8-21.3c7-9.4,12.3-15.7,19.9-23.6l9.2,7.5,16.1,14.6-3.7,3.6-9.3-5h0ZM172.8,258.3l8.4-11.4c-.7-3.2-5.4-7-9-7.8l-10.3,12.4,10.9,6.8h0Z"/>
  <path class="st0" d="M794.6,329.8l-7.6-16.8,23.3-9.5c3.2-1.3,4.4-2.8,6-6.8l9.2,15.6c2.5,4.3,2.7,9.9,1,14.8-1.3,3.7-5.6,7.3-10.2,9.1-7.9,3.1-17,1.5-21.8-6.5h0ZM814.5,329.3c5.8-2.2,8.1-6.6,6.5-12.6-.6-2.1-2.2-5.1-3.7-6.2-1.3-.9-5.5-.9-7-.2l-13.9,6.3c-2.1,4.2,1.8,9.7,4.6,11.9,4,3.2,8.7,2.7,13.6.9h0Z"/>
  <path class="st0" d="M394.4,134c-9.6,2.6-17.8-.9-22.2-9.6-2.8-5.6-3.4-11.8-.4-17.4,2.8-5.4,8.4-8.2,15.2-9,11-1.3,19.8,5.4,21.1,16.4,1.2,9.6-4,17.1-13.7,19.7h0ZM399.9,123.3c2.9-6.4.6-14.6-4.6-18-4.4-2.9-10.5-2.4-14.1.3-3.9,2.9-5.1,8.4-3.6,13.5,1.4,4.8,5.2,8.6,9.8,9.6,4,.9,10.4-.6,12.5-5.4h0Z"/>
  <path class="st0" d="M581.1,139.3c-13.1,2.9-3.1-16.4-18.4-16.7l-2.7,11.2c-1.7.6-6-.8-7-2.6l8.4-33,17.4,4.9c5.8,1.6,9.5,6.1,8.4,11.7-.9,4.8-5.3,9.1-10.5,9.3l4.4,15.2h0ZM573.3,119c1.8.2,5.1-1.9,5.8-3.4.5-1.3.3-5.3-.9-6.2-2.4-1.7-8.3-3.2-11.2-3.5l-2.8,11.9,9.1,1.2h0Z"/>
  <path class="st0" d="M775.5,291.6l-4.6-7.1,6.9-9.9-4-8.6-12.2,7.2-3.6-6.3,30.5-18.1,10.3,17.2c1.1,1.8,1.9,6.1,1.5,7.9-1.5,5.8-9.9,8.4-18.6,5.7l-6.2,11.8h0ZM782.5,271.1c1,1.5,4,3,5.6,3.3s6-1.6,5.9-3.2c-.4-4.4-3.8-9.5-6.5-13.3l-9.8,5.8,4.7,7.4h0Z"/>
  <path class="st0" d="M747.4,248.5c11.4,8.1,29.7-16.1,27-16.3.9,0,3.4.5,4,1.2l4.3,5.3c-7,6.6-14.5,13.1-23.5,17-7.9,3.4-15.8-1.8-19.5-8.4-4.2-7.5-.5-15.6,6.3-21.1l13.5-11c2.2,0,5.9,3.9,5.1,6.1l-18.7,16.4c-3.2,2.8-1.3,8.7,1.7,10.8h0Z"/>
  <path class="st0" d="M157.1,303.8c-7,.6-13.9-3.2-17.8-7.7-6.3-7.3-4.7-16.3.2-22.7,5.9-7.6,15.2-8.2,24.2-4,7.1,3.3,10.4,11.5,8.9,19.9-1.1,6.1-7,13.7-15.6,14.5h0ZM165.1,278.9c-4.1-4.9-10.9-7.1-16.5-5-4.7,1.7-7.6,6.5-7.7,11.2-.1,3.8,3.6,7.9,7.4,10,5.1,2.8,11.3,2.8,15.3-1,3.7-3.5,5.5-10.4,1.5-15.1h0Z"/>
  <path class="st0" d="M128.6,471.4l.2,8.4-33-14.5c-2.7-1.2-5.2-3.1-5.3-5.8,0-2.9,2-5.3,4.7-6.4,11.4-5,21.6-9.5,33.5-12.7v7.4c0,0-9.1,2.3-9.1,2.3l-.3,17.5,9.2,3.7h0ZM114.5,466l.5-13.9-17.2,7.6,16.7,6.3h0Z"/>
  <path class="st0" d="M626.6,149.8l-15.3-6.4-7.1,6.4c-1.4,0-4.4-1.7-5.9-3.1l27.9-26.7,9,2.4-1.4,38.7c-.5.6-3.8.8-4.8.2-1.3-.7-2.5-3.6-2.4-5.1v-6.5q.1,0,.1,0ZM627.5,144.4v-17c0,0-12.5,12.1-12.5,12.1l12.6,4.9h0Z"/>
  <path class="st0" d="M537.6,120.7l-12.6-1.6-4.7,8.9-7.4-1.6,20.2-34.1,8.7,1.6,7.6,37.3c-.9.2-4.2.2-5.8-.2-4-.9-1.7-9.7-6-10.2h0ZM538.8,115.6l-3.2-15.7-8,14.1,11.3,1.7h0Z"/>
  <path class="st0" d="M133.4,399.1c-2.5,4.5-7.2,5.1-11.1,1.6,6.1-3.6,10-9.7,8.8-16.8-.3-1.5-2-4-3.2-4.5-1.4-.6-5.2.5-6,2l-4,8.5c-2.5,5.3-7.2,8.4-12.5,7.3s-9.7-6.1-9-12.5c.5-5.3,2.5-9.8,5.2-14.9l7.9,1c-5.7,5.1-8.5,10.8-6.8,16.9.3,1.2,2.6,3.1,3.6,3s3.6-1.5,4.2-2.5l7.7-13c1.9-3.1,7.2-3.5,10.5-2.6,10.1,3,10.4,15.9,4.6,26.4h0Z"/>
  <path class="st0" d="M819.3,434.9l-1.7-8.3,8-2.8-3.3-16.6-5.4-2.6c-1.2-.6-.3-5.1.4-5.7l36.8,8.9,1.6,8.3-36.6,18.9h0ZM849.1,413.1l-21.3-5.3,1.5,14.6,19.7-9.3Z"/>
  <path class="st0" d="M158.7,314.7c2.3,11.2-6.6,21.9-11.9,22.1-1.2,0-3.2-2.7-3-3.6,9.5-6.4,12.1-17.2,7-19.3-1.4-.6-4.2.5-5.3,1.7l-8,8.8c-2.4,2.6-8.6,3.6-12.1,2.4-2.8-1-6.8-5-6.9-8.9-.2-9.7,9.3-19.9,11.9-18.4,1.1.6,3.3,3.1,3.1,3.4-4.7,3-6.9,5.4-8.7,10-1,2.6-.2,6,2.1,7.7,1.6,1.2,5.7,0,7.2-1.9l6.9-8.6c2.2-2.8,6.6-4.2,9.9-3.5s6.9,4.1,7.7,8.1h0Z"/>
  <path class="st0" d="M215.6,222l1.6,6.5c.2.8,1.1,3.7.3,3.9l-4.6.8c-5.3-11-8.8-20.5-12.7-31.7-.6-1.5-1.4-3.9-1.3-5.1,0-1.4,3.4-3,5.2-3.5,12.5,5.6,23.6,11.1,35.5,18.4-1.2,1.7-3.6,4.4-4.8,3.9l-6.8-2.7-12.4,9.7h0ZM223.8,209.8l-18.5-9.8,7.7,17.7,10.8-7.9Z"/>
  <path class="st0" d="M654.1,173.3c-8.2-1.1-12.5-6-17.1-11.3l3.5-4.3c3.7,4.6,6.7,8.2,11.8,9.4,1.7.4,5.2-1.3,5.7-2.8,1.7-5.9-6.4-6.6-11.2-16.9-1.3-2.9,1-7.8,3-9.5,7.3-6.2,17.6-1.5,25.7,6.9-.4,1.6-3.1,4.4-4.6,4.8-3.4-3.9-7-7.9-11.4-8.3-1.1-.1-3.9,1.2-4.6,2.1-.8,1.1.2,4.1,1.2,5.2l9.1,9.9c1.8,1.9.9,8-.8,10.1s-6.4,5.3-10.2,4.8h0Z"/>
  <path class="st0" d="M128.3,357.5l10,3.6,5.5-17.3,5.1,1-7.7,25.1-37.1-13.2,8.9-24.3,5,1.5c1,.3-1.2,2.9-1.7,4l-5,13.5,11.9,4.6,5.1-16.3c1.9.5,4.6,2.4,4.2,3.6l-4.2,14.1h0Z"/>
  <path class="st0" d="M112.4,425.8l12,2,2.6-17.3c.3-1.4,4.9-.2,5.1,1.1l-2.8,24.2-9.3-1.2-29.5-5.1,2-22.6c.4-1.2,5.1-1.2,5.5-.2l-2.2,16.3,12,2.4,1.9-16.1,5.4,1.5-2.5,15h0Z"/>
  <path class="st0" d="M242.4,205.5c-1.1.3-3.4-3.1-2.8-4.1,2-3.3,15.7-3.5,14.4-11.9-.7-4.2-7.3-4.2-10.6-2.4-6.3,3.3-13.8,3.8-18.4-2.3-2.8-3.8-1-9.5,2.2-12.8,4.5-4.5,10.4-6.7,16.5-7.7.6,1.8,1.3,4.8.4,5.6-2.5,2-15.8,1.4-12.2,10.9,6.6,5.1,21.6-9.4,27.9,4.4,2.7,5.9.4,11.6-5.6,15.2-3.1,1.9-7.6,4.1-11.8,5h0Z"/>
  <path class="st0" d="M855.2,463.5c-.8,1.7-6.2,1.4-6.6.6,3.9-7.9,3.8-16.5-.5-17.9-5-1.6-4.8,9.2-10.2,18.3-1.9,3.1-8.3,3.4-12,2.2-3.2-1.1-6.6-5.2-7.5-9.8-1.4-7.5,1.1-17,5.1-17.1,1.2,0,3.2.8,4.6,1.6-5.3,5.5-6.1,13.4-1.1,19,1.9,2.1,6.4-.7,7.2-3l4.9-14.1c.8-2.2,5.7-4.1,8-3.9,2.7.2,6.7,2.2,8.2,5.2,2.7,5.3,2.3,13.6-.2,19h0Z"/>
  <polygon class="st0" points="504 426.7 479.6 426.9 479.2 404.6 504 404.7 504 426.7"/>
  <rect class="st0" x="480.5" y="433.2" width="22.5" height="24.7" transform="translate(45.5 936.7) rotate(-89.9)"/>
  <path class="st0" d="M838.6,368.9c-5.1-5.2-15.3-4.7-19.8.9-5.1,6.4-2.9,16,3.4,20.4-1.3,1.1-3.1,2.4-4.1,2.7-3.7,1-14.8-17.2-3.7-28.8,7-7.3,20.9-8.2,28.2-.7,6.6,6.9,6.4,17.5,4,25.9l-7.5-2.6c4.1-5.9,4.6-12.7-.4-17.8h0Z"/>
  <rect class="st0" x="451.9" y="404.6" width="23.2" height="22.4"/>
  <rect class="st0" x="452.2" y="433.9" width="22.6" height="23.3" transform="translate(17.5 908.6) rotate(-89.9)"/>
  <polygon class="st0" points="493.8 119.7 494.7 125.8 469.3 124.8 470.6 89 478.1 88.8 477 119.4 493.8 119.7"/>
  <path class="st0" d="M718.5,177.6l-14.7,6.9c-6.5,3-11.6,6.8-17.2,11.8l-3-4.1c-.7-1,2.3-3.1,3-4.1,4.9-7.1,6.3-15.7,8.2-24.8,1.2,0,5.9,3.7,5.5,5.5l-3.9,12.6,15.4-7.8c2,.2,4.9,2.2,6.7,4.2h0Z"/>
  <path class="st0" d="M715.7,218.8c-.8-.8-.1-3.8,1-3.9s3.4,1.1,4.1,2l2.9,3.6c.6.8,3.4-1,4.3-1.7l15.8-12.2c.1-4.7-5.1-4.6-4.5-10,.1-1,3.8-1,4.6-.1l9.1,10.9-10.5,8.9-16.5,13.2-10.3-10.6h0Z"/>
  <polygon class="st0" points="803.4 356.4 801.1 348.8 817.1 345 837.7 339.5 839.9 347.3 803.4 356.4"/>
  <polygon class="st0" points="205.1 243.6 176.4 218.4 181.8 212.4 210.6 237.9 205.1 243.6"/>
  <path class="st0" d="M289.5,176.4c-1.2,1.3-4.2,3.3-6.3,4.2l-22-30.1,6.5-4,21.7,29.9h0Z"/>
  <path class="st0" d="M506.5,126.3c-1.2.1-4.9-.2-7.1-.6l3.1-35.4h8.2c0-.1-4.2,35.9-4.2,35.9h0Z"/>
  <polygon class="st0" points="783.7 304 779.5 297.7 811.2 281.8 815.6 287.9 783.7 304"/>
  <path class="st0" d="M605,117l-11.2,28.6c-2.1-.6-5.5-2.8-6.5-4.2l11.6-30.3,7.7,2.4c.6.2-1.2,2.7-1.5,3.5h0Z"/>
  <path class="st0" d="M460.8,124.6c-1.1.8-5.3,1.1-7,.8l-1.6-36.2,7.6-.2,1,35.6Z"/>
</svg>