<?xml version="1.0" encoding="UTF-8"?>
<svg id="Capa_1" xmlns="http://www.w3.org/2000/svg" version="1.1" viewBox="0 0 2694.1 507.6">
  <!-- Generator: Adobe Illustrator 30.5.1, SVG Export Plug-In . SVG Version: 2.1.4 Build 3)  -->
  <defs>
    <style>
      .st0 {
        fill: #fff;
      }

      .st1 {
        fill: #bc9136;
      }
    </style>
  </defs>
  <g>
    <path class="st1" d="M1790.4,328.4c-14.2,18-41.7,28.9-64.7,29l-156.4.6,18.3-33.4v-178.8c0,0-18.3-30.1-18.3-30.1l156.7,1.2c20.9.2,44.8,11.7,56.9,26.7,12.9,16,14,35.6,5.3,53.6-6.9,14.2-24.9,25.4-42.2,32,21.3,7.8,42.8,18.3,50.3,32,11.8,21.6,10.1,46.9-5.9,67.2h0ZM1700.3,215c20.2-1.1,32.4-14.9,33.8-33.2,1-13-8.2-33.9-25.7-34.3l-61.2-1.5.7,71.8,52.5-2.8h0ZM1714.1,323.8c21.1-5.7,31.8-27.1,29.3-43.6-2.6-17.2-19.1-31.1-38.8-31.5l-57.4-1.2.6,80.2c22.8.4,46.2,1.5,66.4-4h0Z"/>
    <path class="st1" d="M973.2,330.2c-19.8,22.1-44.6,28.2-72.3,28l-137.6-.9c10.5-16.2,17.9-27.9,17.9-41.8l-.3-160.2c0-15.2-9.2-26.9-21.1-39.4h141.5c17.8,0,38.7,5.8,52.9,14.7,21,13.2,27.9,35,22.3,58.6-4.5,19.1-22.4,30.9-48.1,38.4l28.3,11.7c15.8,6.6,29.2,23.8,32.3,37.4,4.6,20.3-2.2,38.2-15.8,53.4h0ZM896.2,212.5c19.9-4.7,26.8-23.3,25-37.4-2-16.1-15-27.7-33.3-28.1l-49-.9.3,71.1c18.6-.1,38.3-.3,57-4.8h0ZM907.2,321c20.2-7.5,22.2-24.8,20-41.2-1.5-11.4-11-29.4-27.3-30.2l-61.2-3.1.7,80.4c21.7.8,47.3,1.7,67.8-5.9h0Z"/>
    <path class="st1" d="M1406.2,263.6l-28.6-1.3.4,67.3c0,7.7,8.1,19.6,14.1,28.2l-95.4-.4c14.2-15.5,23.2-25.6,23.2-41.4v-166c0-11.7-8.9-23.2-17.9-34l161.4,1.2c24.2.2,48.2,19.7,56.9,35.2,13.5,24.2,11.8,54.7-5.5,74.9-12.7,14.8-33.5,22.1-50.9,26.7l35.2,51.6,44.1,51.5-74.4.8-62.5-94.3h0ZM1452.3,220.9c22.9-16.1,20.4-63.8-6.9-71.1-21.1-5.7-43.7-3.1-67.3-3.6l-.4,88.2c24,1.1,51.6,2.7,74.6-13.5h0Z"/>
    <path class="st1" d="M2117.6,276c-25.7,79.9-124.3,103.1-196.5,77.2-58.3-20.9-88.6-75.9-80.5-136.3,7.5-56.3,57.8-99.6,118.1-104.9,49.9-4.4,101.3,5.6,133.2,44.3,28.4,34.5,39.8,76.1,25.7,119.8h0ZM2060.8,250.1c1.1-36.5-4.5-71.5-32-93.4-21.7-17.2-50.9-19.7-78.7-9.6-45.2,16.5-57.3,81.7-43,130.6,12.3,42,50,62.2,91.3,55.3,36.2-6,61.1-40.6,62.5-82.9h0Z"/>
    <path class="st1" d="M1183.7,290.5h-105.3c0-.1-15.8,38.8-15.8,38.8-2.5,6.1,3.3,17.9,8.8,28.3l-76.4-.6,37.8-70.6,63-148.4,6.8-23,69.1,1.1,80.6,190.6c7.7,18.1,16.6,30.4,30.9,50.6l-94.2.8c6.4-10.1,11.1-23.5,8-31.8l-13.3-35.7h0ZM1169.3,259.8l-37.1-98.1-41.9,98.6,79-.5Z"/>
    <path class="st1" d="M2590.2,290.3h-107.8c0,0-17.7,52.1-17.7,52.1l19.6,14.8-83.8.7,26.5-43.6,68.8-164,10.1-34.4h75.1s56.4,138.3,56.4,138.3l29,64.4c6.1,13.6,14.8,22.5,27.8,38.8l-95.9.3c4.9-9.3,9.9-24,6.7-31.6l-14.8-35.9h0ZM2579.3,260.3l-41.8-104.3-44.4,104.2h86.2Z"/>
    <path class="st1" d="M2367.1,357.7h-212.6c-.6-10.2.8-23.6,5.9-30.5l133.6-180-98.8.2c-9.3,0-23.1,16.1-33.2,22.8l1.1-54.3,202.2-.6c6.2,20.7-1.5,34.8-12.2,49.2l-121,162.5,64.8-1.7c31.9-.9,54.5-7.9,80.5-29.7l-10.2,62.1h0Z"/>
    <path class="st1" d="M669.9,357.5l-100.6.7c11.5-14.6,18.7-26.5,18.7-42.1v-167.4c-26.2-8.1-48.1-1.1-70.4,27.7l-1.1-60.1,218.9-.8-.3,62.8c-12.8-13.2-24-30.1-36.5-30.4l-47.2-1.2v173.6c0,11.5,9.1,23,18.6,37.3h0Z"/>
  </g>
  <g>
    <path class="st1" d="M210.8,487l120.3-.3c17.4,0,33.8-4.9,48.5-12.6,29.8-15.8,47.5-44.9,48.5-78.2.9-30.2-10.2-57.6-34.3-76.2l-24.1-16.5c34.5-16.3,48.6-47.9,43.6-85.6-6.3-47.6-44.3-82.4-92.8-82.6l-109.7-.6v73.9s-17.8,15.2-17.8,15.2v-107.1c-.1,0,143.8,1,143.8,1,29.2.2,56.5,17.2,74,39.6,32.8,42,36.6,114.2-8.9,146.5,56.4,33.8,63.9,115.4,21.7,162.2-23.4,26-56,40.7-91.1,40.7h-143.1c0,.1,0-95.8,0-95.8h21.3v76.2h0Z"/>
    <path class="st1" d="M378.2,377.4l-105.4-95.4-47.1-43.9-109.6,101.5-54,48.9-30.3-.2,51.1-47.5,60.4-55.5,80.9-75.3,59.7,54.6.5-30.5h24.3s.2,53,.2,53l56.4,50.9,56.3,52.1c-4.9,2.2-9.8.7-14.8.2-11.4-1.1-19.6-4.6-28.7-12.8h0Z"/>
    <polygon class="st1" points="111.2 162.9 111.1 303.9 90.5 320.9 90.3 180.6 0 180.7 0 116.6 174.4 116.6 174.5 134.4 20.6 134.5 20.5 163 111.2 162.9"/>
    <polygon class="st1" points="111.1 363.2 111.2 487 138.9 487.3 139 335.4 159.4 317 159.4 506.6 90.4 506.7 90.3 381.5 111.1 363.2"/>
    <path class="st1" d="M321,277.5c31.1-5,48.4-27.4,42.9-58.5-3.5-19.7-18.5-34.8-39.3-36.6-22.9-2-46-1.1-68.9-.9l-.4,41.3-21.4-19.1v-41.2c-.1,0,89.5.8,89.5.8,22.7.2,44.1,14.4,54,34.6,8.8,17.9,9.5,39.4,1.9,57.5-9.7,23.3-32.3,36.4-57.8,38.3l-.5-16h0Z"/>
    <path class="st1" d="M239,464.1v-53.2c.1,0,22.3,0,22.3,0v33.9s63.4-.2,63.4-.2c28.4-3.7,49.8-24.8,48.8-55.1,6.1,6.3,11.2,9.8,19.9,11.7-.3,34.8-33.4,62-65.5,62.3l-88.9.6h0Z"/>
    <polygon class="st1" points="159.5 180.5 159.5 256.3 138.8 274.9 138.8 162.7 177.1 162.7 176.8 180.6 159.5 180.5"/>
    <path class="st0" d="M212.4,91.3l-6.4-27.7c-.3-1.5-4-3.5-5.2-2.8l-19.9,12.2,14.9-18.7c.5-.7,2-3.3,1.3-3.7s-3-1.5-3.7-1.6l-29.7-3.9c11-4.4,20.4-3.9,33.4-6.2l-13.8-19c4.8,1.5,6.8,3.4,10.3,5.5l11.9,7.4L212.7,0l5.4,33,20.5-13.8c-2.1,8-7.6,12.2-12.4,18.8l30.9,6.1c-4.2,4.4-17.4,2.3-29.9,8.2,5.9,8.6,12.1,11.7,16.7,21.4l-18.2-11.8c-1-.7-4.3-2.2-5.1-1.3s-2,3.2-2.2,4.3l-6,26.6h0Z"/>
    <polygon class="st1" points="258.3 336.5 227 336.8 226.5 308.1 258.3 308.2 258.3 336.5"/>
    <rect class="st1" x="228.2" y="344.9" width="28.8" height="31.7" transform="translate(-118.5 602.9) rotate(-89.9)"/>
    <rect class="st1" x="191.4" y="308.1" width="29.8" height="28.8"/>
    <rect class="st1" x="191.8" y="345.7" width="29" height="29.9" transform="translate(-154.6 566.6) rotate(-89.9)"/>
  </g>
  <g>
    <path class="st0" d="M573.5,489.8h-36.1l-7.1,16.7h-13.8l32.5-72.2h13.2l32.6,72.2h-14l-7.2-16.7ZM569,479.3l-13.6-31.6-13.5,31.6h27.1Z"/>
    <path class="st0" d="M597.8,498.9l4.6-10.4c5.8,4.6,15,7.9,23.8,7.9s16-4,16-9.4c0-15.6-42.9-5.4-42.9-32.2s9.3-21.6,29.1-21.6,17.7,2.3,24,6.4l-4.2,10.4c-6.5-3.8-13.6-5.7-19.9-5.7-11.1,0-15.7,4.3-15.7,9.8,0,15.4,42.8,5.4,42.8,31.9s-9.4,21.5-29.2,21.5-22.5-3.5-28.5-8.7h0Z"/>
    <path class="st0" d="M723,495.3v11.2h-54.2v-72.2h52.7v11.2h-39.3v18.8h34.9v11h-34.9v19.9h40.8,0Z"/>
    <path class="st0" d="M731.9,498.9l4.6-10.4c5.8,4.6,15,7.9,23.8,7.9s16-4,16-9.4c0-15.6-42.9-5.4-42.9-32.2s9.3-21.6,29.1-21.6,17.7,2.3,24,6.4l-4.2,10.4c-6.5-3.8-13.6-5.7-19.9-5.7-11.1,0-15.7,4.3-15.7,9.8,0,15.4,42.8,5.4,42.8,31.9s-9.4,21.5-29.2,21.5-22.5-3.5-28.5-8.7h0Z"/>
    <path class="st0" d="M797.7,470.4c0-21.4,16.5-37.1,38.9-37.1s38.9,15.7,38.9,37.1-16.5,37.1-38.9,37.1-38.9-15.8-38.9-37.1ZM861.9,470.4c0-14.8-10.8-25.4-25.4-25.4s-25.4,10.6-25.4,25.4,10.8,25.4,25.4,25.4,25.4-10.6,25.4-25.4Z"/>
    <path class="st0" d="M937,506.6l-14.8-21.2c-.9,0-1.9,0-2.8,0h-16.3v21h-13.4v-72.2h29.7c19,0,30.7,9.7,30.7,25.7s-5.6,19-15.4,22.8l16.6,23.7h-14.4ZM918.8,445.7h-15.7v28.8h15.7c11.8,0,17.8-5.4,17.8-14.4s-6.1-14.3-17.8-14.3Z"/>
    <path class="st0" d="M977.1,414.3h15.2l-17.9,14.1h-11.1l13.9-14.1h0ZM965.1,434.3h13.4v72.2h-13.4v-72.2h0Z"/>
    <path class="st0" d="M1044.9,489.8h-36.1l-7.1,16.7h-13.8l32.5-72.2h13.2l32.6,72.2h-14l-7.2-16.7ZM1040.4,479.3l-13.6-31.6-13.5,31.6h27.1Z"/>
    <path class="st0" d="M1069.2,498.9l4.6-10.4c5.8,4.6,15,7.9,23.8,7.9s16-4,16-9.4c0-15.6-42.9-5.4-42.9-32.2s9.3-21.6,29.1-21.6,17.7,2.3,24,6.4l-4.2,10.4c-6.5-3.8-13.6-5.7-19.9-5.7-11.1,0-15.7,4.3-15.7,9.8,0,15.4,42.8,5.4,42.8,31.9s-9.4,21.5-29.2,21.5-22.5-3.5-28.5-8.7h0Z"/>
    <path class="st0" d="M1168.7,434.3h13.4v72.2h-13.4v-72.2h0Z"/>
    <path class="st0" d="M1265.7,434.3v72.2h-11l-39.8-48.9v48.9h-13.3v-72.2h11l39.8,48.9v-48.9h13.3Z"/>
    <path class="st0" d="M1351.5,506.6v-47.9c0,0-23.8,39.6-23.8,39.6h-6l-23.7-39v47.2h-12.8v-72.2h11l28.7,47.9,28.2-47.9h11v72.2c0,0-12.6,0-12.6,0h0Z"/>
    <path class="st0" d="M1378.5,470.4c0-21.4,16.5-37.1,38.9-37.1s38.9,15.7,38.9,37.1-16.5,37.1-38.9,37.1-38.9-15.8-38.9-37.1ZM1442.8,470.4c0-14.8-10.8-25.4-25.4-25.4s-25.4,10.6-25.4,25.4,10.8,25.4,25.4,25.4,25.4-10.6,25.4-25.4Z"/>
    <path class="st0" d="M1534.7,487c0,12.4-9.7,19.6-28.3,19.6h-35.9v-72.2h33.8c17.3,0,26.6,7.3,26.6,18.8s-3.7,12.9-9.3,15.9c7.7,2.5,13,8.6,13,18h0ZM1484,444.9v19.9h19c9.3,0,14.6-3.3,14.6-9.9s-5.3-10-14.6-10h-19ZM1521.2,485.6c0-7.2-5.5-10.4-15.6-10.4h-21.7v20.8h21.7c10.1,0,15.6-3.2,15.6-10.4h0Z"/>
    <path class="st0" d="M1549.1,434.3h13.4v72.2h-13.4v-72.2h0Z"/>
    <path class="st0" d="M1582,434.3h13.4v60.9h37.8v11.3h-51.2v-72.2h0Z"/>
    <path class="st0" d="M1643.8,434.3h13.4v72.2h-13.4v-72.2h0Z"/>
    <path class="st0" d="M1723.5,489.8h-36.1l-7.1,16.7h-13.8l32.5-72.2h13.2l32.6,72.2h-14l-7.2-16.7ZM1719.1,479.3l-13.6-31.6-13.5,31.6h27.1Z"/>
    <path class="st0" d="M1801.2,506.6l-14.8-21.2c-.9,0-1.9,0-2.8,0h-16.3v21h-13.4v-72.2h29.7c19,0,30.7,9.7,30.7,25.7s-5.6,19-15.4,22.8l16.6,23.7h-14.4,0ZM1783,445.7h-15.7v28.8h15.7c11.8,0,17.8-5.4,17.8-14.4s-6.1-14.3-17.8-14.3Z"/>
    <path class="st0" d="M1829.4,434.3h13.4v72.2h-13.4v-72.2h0Z"/>
    <path class="st0" d="M1909.1,489.8h-36.1l-7.1,16.7h-13.8l32.5-72.2h13.2l32.6,72.2h-14l-7.2-16.7ZM1904.7,479.3l-13.6-31.6-13.5,31.6h27.1Z"/>
    <path class="st0" d="M1933.5,498.9l4.6-10.4c5.8,4.6,15,7.9,23.8,7.9s16-4,16-9.4c0-15.6-42.9-5.4-42.9-32.2s9.3-21.6,29.1-21.6,17.7,2.3,24,6.4l-4.2,10.4c-6.5-3.8-13.6-5.7-19.9-5.7-11.1,0-15.7,4.3-15.7,9.8,0,15.4,42.8,5.4,42.8,31.9s-9.4,21.5-29.2,21.5-22.5-3.5-28.5-8.7h0Z"/>
    <path class="st0" d="M2064.1,481.1v25.5h-13.4v-25.3l-28.4-46.9h14.3l21.1,35.2,21.4-35.2h13.2l-28.3,46.7h0Z"/>
    <path class="st0" d="M2118.5,497.2l7.6-9.2c3.9,5.4,8.7,8.2,14.3,8.2s11.2-4.4,11.2-13.3v-37.4h-25.7v-11.2h39.1v47.9c0,17-8.5,25.4-24.4,25.4s-17.3-3.7-22.3-10.4h0Z"/>
    <path class="st0" d="M2183.3,475.1v-40.8h13.4v40.2c0,14.9,6.7,21.2,18.4,21.2s18.3-6.4,18.3-21.2v-40.2h13.2v40.8c0,21-11.9,32.5-31.6,32.5s-31.7-11.5-31.7-32.5h0Z"/>
    <path class="st0" d="M2312.6,506.6l-14.8-21.2c-.9,0-1.9,0-2.8,0h-16.3v21h-13.4v-72.2h29.7c19,0,30.7,9.7,30.7,25.7s-5.6,19-15.4,22.8l16.6,23.7h-14.4ZM2294.5,445.7h-15.7v28.8h15.7c11.8,0,17.9-5.4,17.9-14.4s-6.1-14.3-17.9-14.3Z"/>
    <path class="st0" d="M2352.7,414.3h15.2l-17.9,14.1h-11.1l13.9-14.1ZM2340.8,434.3h13.4v72.2h-13.4v-72.2h0Z"/>
    <path class="st0" d="M2373.7,434.3h31.6c23.4,0,39.4,14.4,39.4,36.1s-16,36.1-39.4,36.1h-31.6v-72.2h0ZM2404.6,495.2c16.1,0,26.5-9.8,26.5-24.8s-10.4-24.8-26.5-24.8h-17.5v49.5h17.5Z"/>
    <path class="st0" d="M2458.9,434.3h13.4v72.2h-13.4v-72.2h0Z"/>
    <path class="st0" d="M2486.7,470.4c0-21.6,16.5-37.1,38.7-37.1s21.9,4.2,28.6,12.1l-8.7,8.2c-5.3-5.7-11.8-8.5-19.3-8.5-15,0-25.8,10.5-25.8,25.4s10.8,25.4,25.8,25.4,14-2.8,19.3-8.6l8.7,8.2c-6.7,7.8-16.8,12.1-28.7,12.1-22.1,0-38.6-15.6-38.6-37.1h0Z"/>
    <path class="st0" d="M2612.1,489.8h-36.1l-7.1,16.7h-13.8l32.5-72.2h13.2l32.6,72.2h-14l-7.2-16.7h0ZM2607.7,479.3l-13.6-31.6-13.5,31.6h27.1Z"/>
    <path class="st0" d="M2636.5,498.9l4.6-10.4c5.8,4.6,15,7.9,23.8,7.9s16-4,16-9.4c0-15.6-42.9-5.4-42.9-32.2s9.3-21.6,29.1-21.6,17.7,2.3,24,6.4l-4.2,10.4c-6.5-3.8-13.6-5.7-19.9-5.7-11.1,0-15.7,4.3-15.7,9.8,0,15.4,42.8,5.4,42.8,31.9s-9.4,21.5-29.2,21.5-22.5-3.5-28.5-8.7h0Z"/>
  </g>
</svg>